<mxfile host="app.diagrams.net" modified="2024-07-10T20:30:24.234Z" agent="Mozilla/5.0 (Windows NT 10.0; Win64; x64) AppleWebKit/537.36 (KHTML, like Gecko) Chrome/126.0.0.0 Safari/537.36 Edg/126.0.0.0" version="24.6.4" etag="-0RgF0IVLueQUX5hpsbU" type="github">
  <diagram name="Page-1" id="Uvs-lLkFpjb5hRtdU8nJ">
    <mxGraphModel>
      <root>
        <mxCell id="0" />
        <mxCell id="1" parent="0" />
      </root>
    </mxGraphModel>
  </diagram>
</mxfile>
